<?xml version="1.0" encoding="utf-8"?>
<!-- Generator: Adobe Illustrator 16.0.0, SVG Export Plug-In . SVG Version: 6.00 Build 0)  -->
<!DOCTYPE svg PUBLIC "-//W3C//DTD SVG 1.1//EN" "http://www.w3.org/Graphics/SVG/1.1/DTD/svg11.dtd">
<svg version="1.1" xmlns="http://www.w3.org/2000/svg" xmlns:xlink="http://www.w3.org/1999/xlink" x="0px" y="0px" width="432px"
	 height="288px" viewBox="0 0 432 288" enable-background="new 0 0 432 288" xml:space="preserve">
<g id="Layer_1">
	<circle cx="145" cy="133" r="27"/>
	<circle cx="291" cy="133" r="27"/>
	<circle fill="#FFFFFF" cx="72" cy="194" r="27"/>
	<circle fill="#FFFFFF" cx="145" cy="194" r="27"/>
	<circle fill="#FFFFFF" cx="218" cy="194" r="27"/>
	<circle fill="#FFFFFF" cx="291" cy="194" r="27"/>
	<circle cx="72" cy="255" r="27"/>
	<circle cx="145" cy="255" r="27"/>
	<circle fill="#FFFFFF" cx="218" cy="255" r="27"/>
	<circle cx="291" cy="255" r="27"/>
	<circle fill="#FFFFFF" cx="364" cy="255" r="27"/>
</g>
<g id="Layer_2">
	<g>
		<circle fill="none" stroke="#FFFFFF" stroke-width="3" stroke-miterlimit="10" cx="72" cy="72" r="27"/>
		<circle fill="none" stroke="#FFFFFF" stroke-width="3" stroke-miterlimit="10" cx="145" cy="72" r="27"/>
		<circle fill="none" stroke="#FFFFFF" stroke-width="3" stroke-miterlimit="10" cx="218" cy="72" r="27"/>
		<circle fill="none" stroke="#FFFFFF" stroke-width="3" stroke-miterlimit="10" cx="291" cy="72" r="27"/>
		<circle fill="none" stroke="#FFFFFF" stroke-width="3" stroke-miterlimit="10" cx="364" cy="72" r="27"/>
		<circle fill="none" stroke="#FFFFFF" stroke-width="3" stroke-miterlimit="10" cx="72" cy="133" r="27"/>
		<circle fill="none" stroke="#FFFFFF" stroke-width="3" stroke-miterlimit="10" cx="218" cy="133" r="27"/>
		<circle fill="none" stroke="#FFFFFF" stroke-width="3" stroke-miterlimit="10" cx="364" cy="133" r="27"/>
		<circle fill="none" stroke="#FFFFFF" stroke-width="3" stroke-miterlimit="10" cx="364" cy="194" r="27"/>
	</g>
</g>
</svg>
