<?xml version="1.0" encoding="utf-8"?>
<!-- Generator: Adobe Illustrator 16.0.0, SVG Export Plug-In . SVG Version: 6.00 Build 0)  -->
<!DOCTYPE svg PUBLIC "-//W3C//DTD SVG 1.1//EN" "http://www.w3.org/Graphics/SVG/1.1/DTD/svg11.dtd">
<svg version="1.1" xmlns="http://www.w3.org/2000/svg" xmlns:xlink="http://www.w3.org/1999/xlink" x="0px" y="0px" width="432px"
	 height="288px" viewBox="0 0 432 288" enable-background="new 0 0 432 288" xml:space="preserve">
<g id="Layer_2">
	<line fill="none" stroke="#FFFFFF" stroke-miterlimit="10" x1="72" y1="72.5" x2="360" y2="72.5"/>
	<line fill="none" stroke="#FFFFFF" stroke-miterlimit="10" x1="72" y1="109.5" x2="360" y2="109.5"/>
	<line fill="none" stroke="#FFFFFF" stroke-miterlimit="10" x1="72" y1="180.5" x2="360" y2="180.5"/>
	<line fill="none" stroke="#FFFFFF" stroke-miterlimit="10" x1="72" y1="144.5" x2="360" y2="144.5"/>
	<line fill="none" stroke="#FFFFFF" stroke-miterlimit="10" x1="72" y1="216.5" x2="360" y2="216.5"/>
	<line fill="none" stroke="#FFFFFF" stroke-miterlimit="10" x1="71.5" y1="72" x2="71.5" y2="216"/>
	<line fill="none" stroke="#FFFFFF" stroke-miterlimit="10" x1="143.5" y1="72" x2="143.5" y2="216"/>
	<line fill="none" stroke="#FFFFFF" stroke-miterlimit="10" x1="215.5" y1="72" x2="215.5" y2="216"/>
	<line fill="none" stroke="#FFFFFF" stroke-miterlimit="10" x1="287.5" y1="72" x2="287.5" y2="216"/>
	<line fill="none" stroke="#FFFFFF" stroke-miterlimit="10" x1="359.5" y1="72" x2="359.5" y2="216"/>
</g>
<g id="Layer_1">
	<ellipse fill="#FFFFFF" cx="71.624" cy="72.416" rx="4.703" ry="4.889"/>
	<ellipse fill="#FFFFFF" cx="143.624" cy="72.416" rx="4.703" ry="4.889"/>
	<ellipse fill="#FFFFFF" cx="215.624" cy="72.416" rx="4.703" ry="4.889"/>
	<ellipse fill="#FFFFFF" cx="287.624" cy="72.416" rx="4.703" ry="4.889"/>
	<ellipse fill="#FFFFFF" cx="359.624" cy="72.416" rx="4.703" ry="4.889"/>
	<ellipse fill="#FFFFFF" cx="71.624" cy="109.416" rx="4.703" ry="4.889"/>
	<ellipse fill="#FFFFFF" cx="143.624" cy="109.416" rx="4.703" ry="4.889"/>
	<ellipse fill="#FFFFFF" cx="215.624" cy="109.416" rx="4.703" ry="4.889"/>
	<ellipse fill="#FFFFFF" cx="287.624" cy="109.416" rx="4.703" ry="4.889"/>
	<ellipse fill="#FFFFFF" cx="359.624" cy="109.416" rx="4.703" ry="4.889"/>
	<ellipse fill="#FFFFFF" cx="71.624" cy="180.416" rx="4.703" ry="4.889"/>
	<ellipse fill="#FFFFFF" cx="143.624" cy="180.416" rx="4.703" ry="4.889"/>
	<ellipse fill="#FFFFFF" cx="215.624" cy="180.416" rx="4.703" ry="4.889"/>
	<ellipse fill="#FFFFFF" cx="287.624" cy="180.416" rx="4.703" ry="4.889"/>
	<ellipse fill="#FFFFFF" cx="359.624" cy="180.416" rx="4.703" ry="4.889"/>
	<ellipse fill="#FFFFFF" cx="71.624" cy="144.416" rx="4.703" ry="4.889"/>
	<ellipse fill="#FFFFFF" cx="143.624" cy="144.416" rx="4.703" ry="4.889"/>
	<ellipse fill="#FFFFFF" cx="215.624" cy="144.416" rx="4.703" ry="4.889"/>
	<ellipse fill="#FFFFFF" cx="287.624" cy="144.416" rx="4.703" ry="4.889"/>
	<ellipse fill="#FFFFFF" cx="359.624" cy="144.416" rx="4.703" ry="4.889"/>
	<ellipse fill="#FFFFFF" cx="71.624" cy="215.416" rx="4.703" ry="4.889"/>
	<ellipse fill="#FFFFFF" cx="143.624" cy="215.416" rx="4.703" ry="4.889"/>
	<ellipse fill="#FFFFFF" cx="215.624" cy="215.416" rx="4.703" ry="4.889"/>
	<ellipse fill="#FFFFFF" cx="287.624" cy="215.416" rx="4.703" ry="4.889"/>
	<ellipse fill="#FFFFFF" cx="359.624" cy="215.416" rx="4.703" ry="4.889"/>
</g>
</svg>
