<?xml version="1.0" encoding="utf-8"?>
<!-- Generator: Adobe Illustrator 16.0.0, SVG Export Plug-In . SVG Version: 6.00 Build 0)  -->
<!DOCTYPE svg PUBLIC "-//W3C//DTD SVG 1.1//EN" "http://www.w3.org/Graphics/SVG/1.1/DTD/svg11.dtd">
<svg version="1.1" xmlns="http://www.w3.org/2000/svg" xmlns:xlink="http://www.w3.org/1999/xlink" x="0px" y="0px" width="432px"
   height="288px" viewBox="0 0 432 288" enable-background="new 0 0 432 288" xml:space="preserve">
<g id="Layer_2">
</g>
<g id="Layer_1">
  <g>
    <line fill="none" stroke="#fff" stroke-miterlimit="10" x1="61.527" y1="143.5" x2="106" y2="189"/>
    <path fill="none" stroke="#fff" stroke-miterlimit="10" d="M106,145"/>
    <path fill="none" stroke="#fff" stroke-miterlimit="10" d="M62,144.5"/>
    <line fill="none" stroke="#fff" stroke-miterlimit="10" x1="62" y1="144.5" x2="194" y2="189"/>
    <line fill="none" stroke="#fff" stroke-miterlimit="10" x1="238" y1="144" x2="194" y2="189"/>
    <line fill="none" stroke="#fff" stroke-miterlimit="10" x1="238" y1="99" x2="283.049" y2="189"/>
    <line fill="none" stroke="#fff" stroke-miterlimit="10" x1="62" y1="189" x2="194" y2="99"/>
    <line fill="none" stroke="#fff" stroke-miterlimit="10" x1="282" y1="144.5" x2="326" y2="144.5"/>
    <line fill="none" stroke="#fff" stroke-miterlimit="10" x1="369.5" y1="148" x2="369.5" y2="186"/>
    <line fill="none" stroke="#fff" stroke-miterlimit="10" x1="238" y1="189" x2="326" y2="144"/>
    <line fill="none" stroke="#fff" stroke-miterlimit="10" x1="62" y1="99" x2="194" y2="144"/>
    <circle fill="#FFFFFF" stroke="#fff" stroke-miterlimit="10" cx="62" cy="99" r="3.527"/>
    <circle fill="#FFFFFF" stroke="#fff" stroke-miterlimit="10" cx="62" cy="144" r="3.527"/>
    <circle fill="#FFFFFF" stroke="#fff" stroke-miterlimit="10" cx="62" cy="189" r="3.527"/>
    <circle fill="#FFFFFF" stroke="#fff" stroke-miterlimit="10" cx="106" cy="144" r="3.527"/>
    <circle fill="#FFFFFF" stroke="#fff" stroke-miterlimit="10" cx="106" cy="189" r="3.527"/>
    <circle fill="#FFFFFF" stroke="#fff" stroke-miterlimit="10" cx="150" cy="99" r="3.527"/>
    <circle fill="#FFFFFF" stroke="#fff" stroke-miterlimit="10" cx="150" cy="144" r="3.527"/>
    <circle fill="#FFFFFF" stroke="#fff" stroke-miterlimit="10" cx="194" cy="99" r="3.527"/>
    <circle fill="#FFFFFF" stroke="#fff" stroke-miterlimit="10" cx="194" cy="144" r="3.527"/>
    <circle fill="#FFFFFF" stroke="#fff" stroke-miterlimit="10" cx="194" cy="189" r="3.527"/>
    <circle fill="#FFFFFF" stroke="#fff" stroke-miterlimit="10" cx="238" cy="99" r="3.527"/>
    <circle fill="#FFFFFF" stroke="#fff" stroke-miterlimit="10" cx="238" cy="144" r="3.527"/>
    <circle fill="#FFFFFF" stroke="#fff" stroke-miterlimit="10" cx="238" cy="189" r="3.527"/>
    <circle fill="#FFFFFF" stroke="#fff" stroke-miterlimit="10" cx="282" cy="144" r="3.527"/>
    <circle fill="#FFFFFF" stroke="#fff" stroke-miterlimit="10" cx="282" cy="189" r="3.527"/>
    <circle fill="#FFFFFF" stroke="#fff" stroke-miterlimit="10" cx="326" cy="144" r="3.527"/>
    <circle fill="#FFFFFF" stroke="#fff" stroke-miterlimit="10" cx="326" cy="189" r="3.527"/>
    <circle fill="#FFFFFF" stroke="#fff" stroke-miterlimit="10" cx="370" cy="99" r="3.527"/>
    <circle fill="#FFFFFF" stroke="#fff" stroke-miterlimit="10" cx="370" cy="144" r="3.527"/>
    <circle fill="#FFFFFF" stroke="#fff" stroke-miterlimit="10" cx="370" cy="189" r="3.527"/>
  </g>
</g>
</svg>
